<svg xmlns="http://www.w3.org/2000/svg" viewBox="0 0 110.27 98.85"><defs><style>.cls-1{fill:#067ac5;}.cls-2{fill:#035b8c;}</style></defs><g id="Layer_2" data-name="Layer 2"><g id="OBJECTS"><path class="cls-1" d="M33.36,60.71V82.19A16.68,16.68,0,0,1,0,82.19V49.46c.49-8,10.43-11.67,16.2-5.92L33.35,60.7Z"/><path class="cls-1" d="M110.27,17.14v29.1c-.06-8.32-10.31-12.32-16.2-6.44L82.16,51.73l-3.45,3.45L76.92,57l-9.33,9.33-.07.08c-.19.21-.39.42-.59.62a16.3,16.3,0,0,1-11.59,4.68h-.19A16.3,16.3,0,0,1,43.34,67c-.25-.25-.5-.51-.73-.77L33.35,57,16.21,39.8C10.32,33.92.07,37.92,0,46.24V17.14C0,8.05,7.09.27,16.19,0A16.57,16.57,0,0,1,27.88,4.34L50.71,27.18h0l4.4,4.41,3.45-3.43L82.39,4.34A16.61,16.61,0,0,1,94.09,0C103.19.27,110.27,8.05,110.27,17.14Z"/><polygon class="cls-2" points="29.89 53.51 31.56 55.18 55.13 31.59 48.82 25.29 29.89 53.51"/><path class="cls-1" d="M110.27,50V82.19a16.68,16.68,0,0,1-33.35,0V60.7L94.07,43.54C100,37.67,110.21,41.66,110.27,50Z"/></g></g></svg>